# xmcd
#
# Track frame offsets: 
#        150
#        18129
#        34984
#        48908
#        67585
#        82014
#        101408
#        116500
#        135408
#        148948
#        166916
#        184874
#
# Disc length: 2741 seconds
#
# Revision: 3
# Processed by: cddbd v1.5.2PL0 Copyright (c) Steve Scherf et al.
# Submitted via: ExactAudioCopyFreeDBPlugin 1.0
#
DISCID=960ab30c
DTITLE=Sick Puppies - Dressed Up As Life
DYEAR=2007
DGENRE=Rock
TTITLE0=My World
TTITLE1=Pitiful
TTITLE2=Cancer
TTITLE3=What Are You Looking For
TTITLE4=Deliverance
TTITLE5=All The Same
TTITLE6=Too Many Words
TTITLE7=Howard's Tale
TTITLE8=Asshole Father
TTITLE9=Issues
TTITLE10=Anywhere But Here
TTITLE11=The Bottom
EXTD=
EXTT0=
EXTT1=
EXTT2=
EXTT3=
EXTT4=
EXTT5=
EXTT6=
EXTT7=
EXTT8=
EXTT9=
EXTT10=
EXTT11=
PLAYORDER=
